<?xml version="1.0" encoding="utf-8"?>
<!-- Generator: Adobe Illustrator 27.4.0, SVG Export Plug-In . SVG Version: 6.00 Build 0)  -->
<svg version="1.1" id="图层_1" xmlns="http://www.w3.org/2000/svg" xmlns:xlink="http://www.w3.org/1999/xlink" x="0px" y="0px"
	 viewBox="0 0 243.6 52.4" style="enable-background:new 0 0 243.6 52.4;" xml:space="preserve">
<style type="text/css">
	.st0{fill:#002060;}
	.st1{fill:#FFC000;}
</style>
<g>
	<g>
		<path class="st0" d="M15.7,41.2V14.3c0-1.3,3.9-2.5,8.9-2.5c7.7,0,12.4,3.1,12.4,9.5c0,6.5-5.8,9.3-7,9.5c2.1,1.1,4.8,7.5,8,7.9
			c0.4,0.1,0.9,0.1,1.3,0.1c0.4,0,0.5,0.2,0.5,0.5c0,1-2.2,2.9-4.6,2.9c-6.4,0-7.1-9.5-11.1-9.9h-3c-0.3,0-0.5,0.4-0.5,0.8v8.1
			c0,0.4-0.5,0.8-2.4,0.8C16.2,41.9,15.7,41.6,15.7,41.2z M23.9,28.3c4.3,0,7.8-1.6,7.8-6.8c0-4.4-3-5.7-6.8-5.7
			c-2.6,0-4.4,0.5-4.4,1.4v10.1C20.5,27.9,22.6,28.3,23.9,28.3z"/>
		<path class="st0" d="M43.1,30.5c0-8.1,5.3-11.6,10.9-11.6s10.9,3.5,10.9,11.6c0,8.2-5.3,11.7-10.9,11.7
			C48.3,42.3,43.1,38.7,43.1,30.5z M59.7,30.4c0-6-2.7-8.2-5.7-8.2c-3.1,0-5.8,2.2-5.8,8.2s2.7,8.3,5.8,8.3
			C57,38.8,59.7,36.5,59.7,30.4z"/>
		<path class="st0" d="M69.6,10.8c0-0.4,0.4-0.8,2.3-0.8c2,0,2.4,0.4,2.4,0.8v11c0,0,2.7-2.9,6.9-2.9c4.7,0,8.6,4.1,8.6,10.9
			c0,8.8-5.5,12.5-11.3,12.5c-5.1,0-9-2.7-9-5.3L69.6,10.8L69.6,10.8z M74.4,26.5v9.1c0,1.7,2,3.2,4.5,3.2c3.3,0,5.7-2.3,5.7-8.8
			c0-5.6-2.4-7.3-5.3-7.3C76.6,22.7,74.4,25.2,74.4,26.5z"/>
		<path class="st0" d="M93.4,30.5c0-8.1,5.3-11.6,10.9-11.6s10.9,3.5,10.9,11.6c0,8.2-5.3,11.7-10.9,11.7
			C98.7,42.3,93.4,38.7,93.4,30.5z M110.1,30.4c0-6-2.7-8.2-5.7-8.2c-3.1,0-5.8,2.2-5.8,8.2s2.7,8.3,5.8,8.3
			C107.4,38.8,110.1,36.5,110.1,30.4z"/>
	</g>
	<g>
		<path class="st1" d="M128.7,41.2l-10.5-27.5l-0.3-0.7c-0.1-0.4,0.2-0.8,2.3-0.8c2,0,2.9,0.3,3.1,0.8l7.8,22.7l7.8-22.7
			c0.1-0.4,1.2-0.8,3.1-0.8c2,0,2.4,0.4,2.2,0.8l-0.4,1.2l-10.2,27c-0.1,0.4-0.4,0.8-2.4,0.8C129.1,41.9,128.9,41.6,128.7,41.2z"/>
		<path class="st1" d="M147.2,31.4c0-8.9,5.6-12.5,10.9-12.5c5.5,0,8.2,2.7,8.2,6.2c0,6.1-8.1,8.4-13.7,8.6c0.8,3.3,3.5,4.6,6.6,4.6
			c3.5,0,5.3-1.7,6.1-1.9c0.4-0.1,0.7,0,0.7,0.4c0,0.7-0.3,1.7-0.8,2.7c-0.4,0.8-3.2,2.6-6.6,2.6C152.4,42.3,147.2,39.1,147.2,31.4z
			 M152.4,31.1c4.3-0.3,9-2.2,9-6.2c0-1.6-1.2-2.8-3.1-2.8C155.4,22.1,152.5,24.5,152.4,31.1z"/>
		<path class="st1" d="M171.2,41.1V24.7c0-2.3-1.3-2.8-1.3-3.4c0-0.7,2.7-2.3,3.7-2.3c1.2,0,1.9,1.2,2.3,3.1c0,0,2.4-3.1,5.6-3.1
			c2,0,3.9,0.8,3.9,1.6c0,0.6-1.2,2.4-2,3.2c-0.3,0.3-0.5,0.4-0.8,0.4c-0.6,0-1.4-1.1-3-1.1c-2,0-3.8,2.3-3.8,4.2v13.8
			c0,0.4-0.4,0.8-2.4,0.8C171.6,41.9,171.2,41.6,171.2,41.1z"/>
		<path class="st1" d="M187.9,38.5c0-0.8,1.7-2.7,2.3-2.7c0.8,0,2.9,3,6.7,3c2.2,0,3.5-1.2,3.5-3c0-2.1-2.2-2.8-4.7-3.6
			c-3.3-1.1-7-2.3-7-6.3c0-4.2,3.5-6.9,8.8-6.9c4.9,0,7,2.2,7,3s-1.6,2.7-2.3,2.7c-0.5,0-1.7-2.3-5.1-2.3c-2.1,0-3.7,1.2-3.7,2.9
			c0,2.1,2.1,2.7,4.6,3.5c3.3,1,7.2,2.1,7.2,6.5c0,4.3-3.5,7.2-8.4,7.2C191.7,42.3,187.9,39.3,187.9,38.5z"/>
		<path class="st1" d="M208.7,31.4c0-8.9,5.6-12.5,10.9-12.5c5.5,0,8.2,2.7,8.2,6.2c0,6.1-8.1,8.4-13.7,8.6c0.8,3.3,3.5,4.6,6.6,4.6
			c3.5,0,5.3-1.7,6.1-1.9c0.4-0.1,0.7,0,0.7,0.4c0,0.7-0.3,1.7-0.8,2.7c-0.4,0.8-3.2,2.6-6.6,2.6C214,42.3,208.7,39.1,208.7,31.4z
			 M213.9,31.1c4.3-0.3,9-2.2,9-6.2c0-1.6-1.2-2.8-3.1-2.8C216.9,22.1,214.1,24.5,213.9,31.1z"/>
	</g>
</g>
</svg>
