<?xml version="1.0" encoding="utf-8"?>
<!-- Generator: Adobe Illustrator 27.4.0, SVG Export Plug-In . SVG Version: 6.00 Build 0)  -->
<svg version="1.1" xmlns="http://www.w3.org/2000/svg" xmlns:xlink="http://www.w3.org/1999/xlink" x="0px" y="0px"
	 viewBox="0 0 243.8 62.4" style="enable-background:new 0 0 243.8 62.4;" xml:space="preserve">
<style type="text/css">
	.st0{fill:#002060;}
	.st1{fill:#FFC000;}
	.st2{display:none;}
	.st3{display:inline;}
	.st4{fill:none;stroke:#FF0000;stroke-width:0.5;stroke-miterlimit:10;}
</style>
<g id="图层_1">
	<g>
		<g>
			<path class="st0" d="M15.6,46.8V18.7c0-1.4,3.9-2.6,8.9-2.6c7.7,0,12.4,3.2,12.4,9.9c0,6.8-5.8,9.7-7,9.9c2.1,1.2,4.8,7.8,8,8.3
				c0.4,0.1,0.9,0.1,1.3,0.1c0.4,0,0.5,0.2,0.5,0.5c0,1-2.2,3-4.6,3c-6.4,0-7.1-9.9-11.1-10.4h-3c-0.3,0-0.5,0.4-0.5,0.8v8.5
				c0,0.4-0.5,0.8-2.4,0.8C16.1,47.6,15.6,47.2,15.6,46.8z M23.8,33.3c4.3,0,7.8-1.7,7.8-7.1c0-4.6-3-6-6.8-6
				c-2.6,0-4.4,0.5-4.4,1.5v10.6C20.4,32.9,22.5,33.3,23.8,33.3z"/>
			<path class="st0" d="M43.1,35.6c0-8.5,5.3-12.1,10.9-12.1s10.9,3.7,10.9,12.1c0,8.6-5.3,12.2-10.9,12.2
				C48.3,48,43.1,44.2,43.1,35.6z M59.7,35.5c0-6.3-2.7-8.6-5.7-8.6c-3.1,0-5.8,2.3-5.8,8.6c0,6.3,2.7,8.7,5.8,8.7
				C57,44.3,59.7,41.9,59.7,35.5z"/>
			<path class="st0" d="M69.6,15c0-0.4,0.4-0.8,2.3-0.8c2,0,2.4,0.4,2.4,0.8v11.5c0,0,2.7-3,6.9-3c4.7,0,8.6,4.3,8.6,11.4
				c0,9.2-5.5,13.1-11.3,13.1c-5.1,0-9-2.8-9-5.5V15H69.6z M74.4,31.4V41c0,1.8,2,3.3,4.5,3.3c3.3,0,5.7-2.4,5.7-9.2
				c0-5.9-2.4-7.6-5.3-7.6C76.6,27.5,74.4,30.1,74.4,31.4z"/>
			<path class="st0" d="M93.5,35.6c0-8.5,5.3-12.1,10.9-12.1s10.9,3.7,10.9,12.1c0,8.6-5.3,12.2-10.9,12.2
				C98.8,48,93.5,44.2,93.5,35.6z M110.2,35.5c0-6.3-2.7-8.6-5.7-8.6c-3.1,0-5.8,2.3-5.8,8.6c0,6.3,2.7,8.7,5.8,8.7
				C107.5,44.3,110.2,41.9,110.2,35.5z"/>
		</g>
		<g>
			<path class="st1" d="M128.9,46.8L118.3,18l-0.3-0.7c-0.1-0.4,0.2-0.8,2.3-0.8c2,0,2.9,0.3,3.1,0.8l7.8,23.8l7.8-23.8
				c0.1-0.4,1.2-0.8,3.1-0.8c2,0,2.4,0.4,2.2,0.8l-0.4,1.3l-10.2,28.3c-0.1,0.4-0.4,0.8-2.4,0.8C129.3,47.6,129.1,47.2,128.9,46.8z"
				/>
			<path class="st1" d="M147.4,36.6c0-9.3,5.6-13.1,10.9-13.1c5.5,0,8.2,2.8,8.2,6.5c0,6.4-8.1,8.8-13.7,9c0.8,3.5,3.5,4.8,6.6,4.8
				c3.5,0,5.3-1.8,6.1-2c0.4-0.1,0.7,0,0.7,0.4c0,0.7-0.3,1.8-0.8,2.8c-0.4,0.8-3.2,2.7-6.6,2.7C152.6,48,147.4,44.6,147.4,36.6z
				 M152.6,36.3c4.3-0.3,9-2.3,9-6.5c0-1.7-1.2-2.9-3.1-2.9C155.6,26.8,152.7,29.3,152.6,36.3z"/>
			<path class="st1" d="M171.5,46.7V29.6c0-2.4-1.3-2.9-1.3-3.6c0-0.7,2.7-2.4,3.7-2.4c1.2,0,1.9,1.3,2.3,3.2c0,0,2.4-3.2,5.6-3.2
				c2,0,3.9,0.8,3.9,1.7c0,0.6-1.2,2.5-2,3.3c-0.3,0.3-0.5,0.4-0.8,0.4c-0.6,0-1.4-1.2-3-1.2c-2,0-3.8,2.4-3.8,4.4v14.4
				c0,0.4-0.4,0.8-2.4,0.8C171.9,47.6,171.5,47.2,171.5,46.7z"/>
			<path class="st1" d="M188.2,44c0-0.8,1.7-2.8,2.3-2.8c0.8,0,2.9,3.1,6.7,3.1c2.2,0,3.5-1.3,3.5-3.1c0-2.2-2.2-2.9-4.7-3.8
				c-3.3-1.2-7-2.4-7-6.6c0-4.4,3.5-7.2,8.8-7.2c4.9,0,7,2.3,7,3.1c0,0.8-1.6,2.8-2.3,2.8c-0.5,0-1.7-2.4-5.1-2.4
				c-2.1,0-3.7,1.3-3.7,3c0,2.2,2.1,2.8,4.6,3.7c3.3,1,7.2,2.2,7.2,6.8c0,4.5-3.5,7.5-8.4,7.5C192,48,188.2,44.8,188.2,44z"/>
			<path class="st1" d="M209,36.6c0-9.3,5.6-13.1,10.9-13.1c5.5,0,8.2,2.8,8.2,6.5c0,6.4-8.1,8.8-13.7,9c0.8,3.5,3.5,4.8,6.6,4.8
				c3.5,0,5.3-1.8,6.1-2c0.4-0.1,0.7,0,0.7,0.4c0,0.7-0.3,1.8-0.8,2.8c-0.4,0.8-3.2,2.7-6.6,2.7C214.4,48,209,44.6,209,36.6z
				 M214.3,36.3c4.3-0.3,9-2.3,9-6.5c0-1.7-1.2-2.9-3.1-2.9C217.3,26.8,214.5,29.3,214.3,36.3z"/>
		</g>
	</g>
</g>
<g id="标注图层" class="st2">
	<g class="st3">
		<line class="st4" x1="0" y1="-1.3" x2="243.8" y2="-1.3"/>
		<line class="st4" x1="243.8" y1="1.7" x2="243.8" y2="-4.3"/>
		<line class="st4" x1="0" y1="1.7" x2="0" y2="-4.3"/>

			<text transform="matrix(1 0 0 1 98.6161 -7.3786)" style="fill:#FF0000; font-family:'AdobeSongStd-Light-GBpc-EUC-H'; font-size:12px;">86.00 mm</text>
	</g>
	<g class="st3">
		<line class="st4" x1="-7" y1="5.7" x2="-7" y2="56.7"/>
		<line class="st4" x1="-4" y1="56.7" x2="-10" y2="56.7"/>
		<line class="st4" x1="-4" y1="5.7" x2="-10" y2="5.7"/>

			<text transform="matrix(-4.371139e-08 -1 1 -4.371139e-08 -13.0476 54.455)" style="fill:#FF0000; font-family:'AdobeSongStd-Light-GBpc-EUC-H'; font-size:12px;">18.00 mm</text>
	</g>
</g>
<g id="标注图层_00000018946226551122250660000011195608592482340487_" class="st2">
	<g class="st3">
		<line class="st4" x1="0" y1="-5.6" x2="243.8" y2="-5.6"/>
		<line class="st4" x1="243.8" y1="-2.6" x2="243.8" y2="-8.6"/>
		<line class="st4" x1="0" y1="-2.6" x2="0" y2="-8.6"/>

			<text transform="matrix(1 0 0 1 98.6161 -11.6305)" style="fill:#FF0000; font-family:'AdobeSongStd-Light-GBpc-EUC-H'; font-size:12px;">86.00 mm</text>
	</g>
	<g class="st3">
		<line class="st4" x1="-7" y1="1.4" x2="-7" y2="60.9"/>
		<line class="st4" x1="-4" y1="60.9" x2="-10" y2="60.9"/>
		<line class="st4" x1="-4" y1="1.4" x2="-10" y2="1.4"/>

			<text transform="matrix(-4.371139e-08 -1 1 -4.371139e-08 -13.0476 54.455)" style="fill:#FF0000; font-family:'AdobeSongStd-Light-GBpc-EUC-H'; font-size:12px;">21.00 mm</text>
	</g>
</g>
</svg>
